<?xml version="1.0" standalone="no"?>
<!DOCTYPE svg PUBLIC "-//W3C//DTD SVG 20010904//EN"
 "http://www.w3.org/TR/2001/REC-SVG-20010904/DTD/svg10.dtd">
<svg version="1.0" xmlns="http://www.w3.org/2000/svg"
 width="1080.000000pt" height="1080.000000pt" viewBox="0 0 1080.000000 1080.000000"
 preserveAspectRatio="xMidYMid meet">

<g transform="translate(0.000000,1080.000000) scale(0.100000,-0.100000)"
fill="#000000" stroke="none">
<path d="M4100 9954 c-212 -18 -428 -53 -604 -99 -1292 -332 -2266 -1408
-2466 -2725 -130 -853 80 -1731 580 -2430 729 -1019 1953 -1543 3190 -1364
320 46 622 137 937 281 l124 56 1347 -1345 c1409 -1408 1389 -1389 1547 -1462
163 -75 359 -108 526 -86 394 50 709 305 836 675 100 294 53 616 -130 890 -25
38 -521 543 -1377 1400 l-1337 1340 48 100 c320 662 411 1434 253 2155 -110
501 -328 959 -650 1365 -112 141 -388 417 -529 529 -486 385 -1031 615 -1665
701 -109 15 -529 28 -630 19z m650 -589 c792 -125 1462 -554 1904 -1217 181
-273 329 -627 395 -944 45 -222 55 -319 55 -574 0 -314 -29 -517 -111 -790
-209 -698 -686 -1286 -1328 -1637 -320 -175 -679 -286 -1044 -323 -133 -13
-419 -13 -552 0 -824 82 -1573 537 -2033 1233 -224 339 -362 704 -427 1127
-18 117 -22 190 -23 380 -1 247 7 335 50 555 186 948 883 1748 1801 2066 156
53 360 103 508 123 66 9 134 18 150 20 79 11 555 -3 655 -19z"/>
<path d="M3140 6750 l0 -1520 240 0 240 0 0 574 c0 449 3 577 13 583 6 4 264
10 572 13 l560 5 0 215 0 215 -554 3 c-499 2 -556 4 -573 19 -17 15 -18 44
-18 480 0 450 1 464 20 483 20 20 33 20 775 20 l755 0 0 215 0 215 -1015 0
-1015 0 0 -1520z"/>
<path d="M3742 7158 l3 -163 569 -2 c409 -2 572 -6 582 -14 19 -16 21 -708 2
-727 -9 -9 -115 -12 -416 -12 -259 0 -410 -4 -423 -10 -17 -10 -19 -23 -19
-158 0 -81 4 -153 8 -159 6 -10 108 -13 433 -15 l424 -3 3 -332 2 -333 175 0
175 0 0 1045 0 1045 -760 0 -760 0 2 -162z"/>
</g>
</svg>
